<svg xmlns="http://www.w3.org/2000/svg" viewBox="0 0 24 24" id="google-drive"><path fill="#303c42" d="M23.933 14.249c-.003-.005-.009-.007-.012-.012l.003-.002-7.5-12A.502.502 0 0 0 16 2H8a.498.498 0 0 0-.42.238l-.004-.003-.011.019h-.001v.001L.076 14.235a.497.497 0 0 0-.01.513l4 7c.088.154.25.25.428.252H19.5a.5.5 0 0 0 .434-.252l4-7a.502.502 0 0 0-.001-.499zM9.624 14 12 10.075 14.375 14H9.624z"></path><path fill="#ffee58" d="m15.722 3 6.875 11h-7.053L8.886 3z"></path><path fill="#66bb6a" d="M1.082 14.512 7.993 3.455l3.422 5.654-6.903 11.405z"></path><path fill="#26c6da" d="M19.209 21H5.387l3.631-6h13.619z"></path><linearGradient id="a" x1="6.684" x2="11.592" y1="4.763" y2="9.671" gradientUnits="userSpaceOnUse"><stop offset="0" stop-opacity=".1"></stop><stop offset="1" stop-opacity="0"></stop></linearGradient><path fill="url(#a)" d="M11.415 9.109 7.993 3.455l2.29 7.525z"></path><linearGradient id="b" x1="16.101" x2="20.834" y1="11.031" y2="15.763" gradientUnits="userSpaceOnUse"><stop offset="0" stop-opacity=".1"></stop><stop offset="1" stop-opacity="0"></stop></linearGradient><path fill="url(#b)" d="m14.634 12.497.91 1.503h7.053z"></path><linearGradient id="c" x1="5.479" x2="9.885" y1="20.36" y2="15.36" gradientUnits="userSpaceOnUse"><stop offset="0" stop-opacity=".1"></stop><stop offset="1" stop-opacity="0"></stop></linearGradient><path fill="url(#c)" d="m9.018 15-3.631 6 6-6z"></path><linearGradient id="d" x1="2.746" x2="22.544" y1="8.501" y2="17.733" gradientUnits="userSpaceOnUse"><stop offset="0" stop-color="#fff" stop-opacity=".2"></stop><stop offset="1" stop-color="#fff" stop-opacity="0"></stop></linearGradient><path fill="url(#d)" d="M23.933 14.249c-.003-.005-.009-.007-.012-.012l.003-.002-7.5-12A.502.502 0 0 0 16 2H8a.498.498 0 0 0-.42.238l-.004-.003-.011.019h-.001v.001L.076 14.235a.497.497 0 0 0-.01.513l4 7c.088.154.25.25.428.252H19.5a.5.5 0 0 0 .434-.252l4-7a.502.502 0 0 0-.001-.499zM9.624 14 12 10.075 14.375 14H9.624z"></path></svg>