<svg xmlns="http://www.w3.org/2000/svg"  viewBox="0 0 100 100" width="100px" height="100px" baseProfile="basic"><path fill="#e3e2e3" d="M69,82H31c-7.18,0-13-5.82-13-13V31c0-7.18,5.82-13,13-13h38c7.18,0,13,5.82,13,13v38 C82,76.18,76.18,82,69,82z"/><path fill="#40a6dd" d="M65.2,68.83c-0.74,0.43-1.6,0.67-2.5,0.67H37.3c-0.9,0-1.76-0.24-2.5-0.67l6.54-11.33h17.32 L65.2,68.83z"/><path fill="#ead032" d="M71.74,57.5H58.66L50,42.5l6.54-11.33c0.75,0.43,1.38,1.05,1.83,1.83l12.7,22 C71.52,55.78,71.74,56.64,71.74,57.5z"/><path fill="#8cc78c" d="M50,42.5l-8.66,15H28.26c0-0.86,0.22-1.72,0.67-2.5l12.7-22c0.45-0.78,1.08-1.4,1.83-1.83L50,42.5z"/><path fill="#e85654" d="M65.199,68.831c0.748-0.432,1.385-1.057,1.832-1.831l4.042-7c0.533-0.923,0.741-1.974,0.638-3 H58.371L65.199,68.831z"/><path fill="#70b570" d="M45.959,30.5c-1.066,0-2.079,0.345-2.916,0.948L49.711,43l6.83-11.83 c-0.748-0.432-1.607-0.67-2.5-0.67H45.959z"/><path fill="#3a83c1" d="M28.927,60l4.042,7c0.533,0.923,1.339,1.628,2.28,2.052L41.917,57.5h-13.66 C28.257,58.363,28.48,59.227,28.927,60z"/><g><path fill="#1f212b" d="M69,83H31c-7.72,0-14-6.28-14-14V31c0-7.72,6.28-14,14-14h38c7.72,0,14,6.28,14,14v38 C83,76.72,76.72,83,69,83z M31,19c-6.617,0-12,5.383-12,12v38c0,6.617,5.383,12,12,12h38c6.617,0,12-5.383,12-12V31 c0-6.617-5.383-12-12-12H31z"/><path fill="#1f212b" d="M62.701,70H37.299c-1.958,0-3.783-1.054-4.763-2.75l0,0l-4.042-7c-0.98-1.696-0.98-3.804,0-5.5 l12.702-22c0.979-1.696,2.805-2.75,4.763-2.75h8.082c1.958,0,3.783,1.054,4.763,2.75l12.702,22c0.98,1.696,0.98,3.804,0,5.5 l-4.042,7C66.484,68.946,64.659,70,62.701,70z M33.401,66.75c0.802,1.388,2.295,2.25,3.897,2.25h25.402 c1.603,0,3.096-0.862,3.897-2.25l4.042-7c0.802-1.388,0.802-3.112,0-4.5l-12.702-22C57.137,31.862,55.644,31,54.041,31h-8.082 c-1.603,0-3.096,0.862-3.897,2.25l-12.702,22c-0.802,1.388-0.802,3.112,0,4.5L33.401,66.75z"/><path fill="#1f212b" d="M65.187,69.305c-0.172,0-0.341-0.09-0.433-0.25L46.108,36.759c-0.139-0.239-0.057-0.545,0.183-0.683 c0.239-0.14,0.546-0.058,0.683,0.183L65.62,68.555c0.139,0.239,0.057,0.545-0.183,0.683C65.358,69.283,65.272,69.305,65.187,69.305 z"/><path fill="#1f212b" d="M35.893,67.435c-0.085,0-0.171-0.021-0.25-0.067c-0.239-0.138-0.321-0.443-0.183-0.683 l20.634-35.739c0.138-0.239,0.444-0.321,0.683-0.183c0.239,0.138,0.321,0.443,0.183,0.683L36.325,67.185 C36.233,67.345,36.064,67.435,35.893,67.435z"/><path fill="#1f212b" d="M61.5,58H28.257c-0.276,0-0.5-0.224-0.5-0.5s0.224-0.5,0.5-0.5H61.5c0.276,0,0.5,0.224,0.5,0.5 S61.776,58,61.5,58z"/><path fill="#1f212b" d="M71.743,58H68.5c-0.276,0-0.5-0.224-0.5-0.5s0.224-0.5,0.5-0.5h3.243c0.276,0,0.5,0.224,0.5,0.5 S72.02,58,71.743,58z"/><path fill="#1f212b" d="M66.5,58h-2c-0.276,0-0.5-0.224-0.5-0.5s0.224-0.5,0.5-0.5h2c0.276,0,0.5,0.224,0.5,0.5 S66.776,58,66.5,58z"/><path fill="#1f212b" d="M45.373,34.986c-0.173,0-0.341-0.09-0.433-0.25l-1.899-3.291c-0.139-0.239-0.057-0.545,0.183-0.683 c0.238-0.141,0.546-0.057,0.683,0.183l1.899,3.291c0.139,0.239,0.057,0.545-0.183,0.683C45.544,34.965,45.458,34.986,45.373,34.986 z"/></g></svg>